<?xml version="1.0" encoding="utf-8"?>
<!-- Generator: Adobe Illustrator 17.0.0, SVG Export Plug-In . SVG Version: 6.00 Build 0)  -->
<!DOCTYPE svg PUBLIC "-//W3C//DTD SVG 1.1//EN" "http://www.w3.org/Graphics/SVG/1.1/DTD/svg11.dtd">
<svg version="1.1" id="Layer_1" xmlns="http://www.w3.org/2000/svg" xmlns:xlink="http://www.w3.org/1999/xlink" x="0px" y="0px"
	 width="138px" height="138px" viewBox="0 0 138 138" enable-background="new 0 0 138 138" xml:space="preserve">
<g>
	<g>
		<g>
			<path d="M71.188,44.256c3.34,0,6.057-2.718,6.057-6.06v-4.378c0-3.34-2.717-6.058-6.057-6.058h-4.375
				c-3.344,0-6.063,2.718-6.063,6.058v4.378c0,3.342,2.719,6.06,6.063,6.06H71.188z M71.73,45.514
				c-0.184,0.014-0.357,0.056-0.543,0.056h-4.375c-0.185,0-0.359-0.042-0.54-0.056v6.249h5.458V45.514z M69.001-0.001
				c-38.107,0-69,30.892-69,69c0,38.109,30.893,69.002,69,69.002c38.106,0,68.997-30.893,68.997-69.002
				C137.998,30.891,107.107-0.001,69.001-0.001z M33.612,82.953c0-0.362,0.294-0.656,0.657-0.656h8.291v1.313h-7.623
				c0.348,9.843,8.466,17.744,18.396,17.744c10.146,0,18.399-8.255,18.399-18.401V53.076h-5.458v37.108
				c-0.386,0.688-0.827,1.34-1.313,1.953V53.076H50.996v-1.313h13.963v-6.459c-3.167-0.827-5.522-3.685-5.522-7.107v-4.378
				c0-4.064,3.309-7.371,7.376-7.371h4.375c4.062,0,7.369,3.307,7.369,7.371v4.378c0,3.42-2.352,6.277-5.514,7.106v6.46h13.961
				v1.313H73.043v29.877c0,10.87-8.843,19.714-19.711,19.714C42.458,102.667,33.612,93.823,33.612,82.953z M104.389,97.739
				c0,2.718-2.416,4.928-5.381,4.928H70.34c-1.185,0-2.271-0.396-3.16-1.048c0.371-0.276,0.745-0.548,1.099-0.847
				c0.605,0.36,1.305,0.582,2.061,0.582h28.668c2.242,0,4.066-1.621,4.066-3.615v-4.93h1.314v4.93H104.389z"/>
		</g>
	</g>
</g>
</svg>
